<svg width="32" height="32" viewBox="0 0 32 32" fill="none" xmlns="http://www.w3.org/2000/svg">
  <defs>
    <linearGradient id="grad1" x1="0%" y1="0%" x2="100%" y2="100%">
      <stop offset="0%" style="stop-color:#3498db;stop-opacity:1" />
      <stop offset="100%" style="stop-color:#2c3e50;stop-opacity:1" />
    </linearGradient>
    <linearGradient id="grad2" x1="0%" y1="0%" x2="100%" y2="100%">
      <stop offset="0%" style="stop-color:#e74c3c;stop-opacity:1" />
      <stop offset="100%" style="stop-color:#c0392b;stop-opacity:1" />
    </linearGradient>
  </defs>
  
  <!-- Background circle -->
  <circle cx="16" cy="16" r="15" fill="url(#grad1)" stroke="#fff" stroke-width="1"/>
  
  <!-- Robot head outline -->
  <rect x="8" y="10" width="16" height="12" rx="2" fill="#2c3e50" stroke="#fff" stroke-width="0.5"/>
  
  <!-- Robot eyes -->
  <circle cx="12" cy="14" r="2" fill="url(#grad2)"/>
  <circle cx="20" cy="14" r="2" fill="url(#grad2)"/>
  <circle cx="12" cy="14" r="1" fill="#fff"/>
  <circle cx="20" cy="14" r="1" fill="#fff"/>
  
  <!-- Robot mouth/speaker -->
  <rect x="13" y="18" width="6" height="2" rx="1" fill="#34495e"/>
  <rect x="14" y="18.5" width="4" height="1" rx="0.5" fill="#fff" opacity="0.3"/>
  
  <!-- Game controller elements -->
  <circle cx="6" cy="24" r="3" fill="url(#grad1)" stroke="#fff" stroke-width="0.5"/>
  <circle cx="26" cy="24" r="3" fill="url(#grad1)" stroke="#fff" stroke-width="0.5"/>
  
  <!-- D-pad -->
  <rect x="5" y="23" width="2" height="2" rx="0.2" fill="#fff"/>
  
  <!-- Action buttons -->
  <circle cx="26" cy="24" r="1" fill="#fff"/>
  
  <!-- Antenna -->
  <line x1="16" y1="10" x2="16" y2="6" stroke="#fff" stroke-width="1"/>
  <circle cx="16" cy="5" r="1.5" fill="#27ae60"/>
</svg>
